<?xml version="1.0" standalone="no"?>
<!DOCTYPE svg PUBLIC "-//W3C//DTD SVG 20010904//EN"
 "http://www.w3.org/TR/2001/REC-SVG-20010904/DTD/svg10.dtd">
<svg version="1.0" xmlns="http://www.w3.org/2000/svg"
 width="512.000000pt" height="512.000000pt" viewBox="0 0 512.000000 512.000000"
 preserveAspectRatio="xMidYMid meet">
<metadata>
Created by potrace 1.11, written by Peter Selinger 2001-2013
</metadata>
<g transform="translate(0.000000,512.000000) scale(0.100000,-0.100000)"
fill="#000000" stroke="none">
<path d="M2379 5116 c-2 -2 -35 -6 -74 -10 -196 -17 -498 -87 -650 -151 -16
-7 -55 -23 -85 -35 -228 -93 -508 -268 -695 -435 -494 -441 -793 -1016 -863
-1665 -9 -88 -8 -460 2 -535 4 -33 10 -75 12 -94 25 -196 105 -471 195 -672
204 -453 525 -829 943 -1103 129 -84 227 -138 346 -190 47 -21 94 -42 105 -47
57 -26 306 -100 415 -122 213 -44 290 -51 525 -52 222 0 284 5 485 41 761 137
1454 660 1804 1361 130 258 218 539 251 793 29 229 28 538 -4 745 -79 515
-320 1003 -682 1381 -206 215 -428 380 -694 514 -82 42 -168 83 -190 92 -62
26 -244 87 -272 92 -13 3 -39 10 -56 15 -39 12 -215 48 -277 56 -25 3 -61 8
-80 11 -41 6 -455 15 -461 10z m526 -141 c266 -40 475 -106 720 -225 682 -331
1165 -952 1324 -1700 35 -166 45 -277 46 -480 0 -180 -8 -296 -29 -417 -66
-372 -199 -691 -420 -1007 -35 -50 -72 -100 -83 -111 -10 -11 -33 -38 -52 -60
-155 -183 -347 -349 -559 -484 -89 -56 -285 -157 -368 -189 -27 -10 -58 -23
-69 -27 -11 -5 -22 -9 -25 -10 -3 -1 -50 -16 -105 -33 -112 -36 -291 -77 -376
-86 -31 -4 -67 -9 -80 -12 -13 -4 -121 -7 -239 -9 -288 -3 -481 23 -737 101
-678 205 -1242 705 -1528 1355 -36 81 -119 321 -129 370 -2 13 -12 58 -21 99
-9 41 -18 91 -21 110 -3 19 -7 42 -9 50 -22 80 -27 516 -6 650 6 47 14 99 17
115 10 69 29 147 61 260 245 853 937 1507 1804 1704 261 59 634 75 884 36z"/>
<path d="M2477 4844 c-1 -1 -43 -5 -94 -8 -165 -12 -369 -53 -543 -109 -294
-95 -588 -275 -784 -480 -202 -212 -337 -450 -424 -747 -58 -199 -73 -291 -76
-450 -4 -189 28 -293 138 -447 37 -51 71 -105 77 -120 26 -69 16 -142 -27
-192 -30 -36 -106 -62 -156 -54 -95 15 -180 102 -222 225 -29 87 -38 153 -39
268 0 161 17 289 59 449 23 89 25 116 5 95 -8 -9 -55 -178 -65 -239 -30 -164
-33 -185 -42 -300 -45 -562 122 -1133 446 -1531 250 -305 574 -503 995 -607
94 -24 129 -31 215 -42 76 -11 248 -6 317 9 91 19 158 52 253 125 119 92 167
110 247 89 133 -33 170 -205 66 -311 -94 -97 -239 -141 -462 -139 -140 1 -322
26 -446 61 -97 27 -104 9 -8 -22 184 -60 404 -89 659 -89 538 0 1065 189 1409
504 78 71 91 84 152 153 108 123 208 287 292 476 33 77 97 296 121 419 16 77
23 153 24 230 1 220 -27 307 -153 475 -72 97 -90 153 -71 225 29 109 150 156
259 101 92 -47 164 -182 187 -350 12 -88 6 -296 -11 -376 -2 -11 -7 -36 -10
-55 -9 -63 -16 -94 -35 -168 -23 -83 -23 -82 -11 -82 16 0 61 149 76 250 4 24
8 47 10 50 2 3 6 30 10 60 4 30 9 58 11 62 5 7 17 228 17 303 1 336 -84 706
-229 998 -235 474 -597 780 -1104 932 -198 60 -326 80 -500 78 -174 -1 -264
-33 -418 -148 -93 -69 -129 -84 -196 -79 -167 11 -216 214 -81 332 56 50 158
97 235 108 19 3 43 7 53 10 21 6 257 6 307 -1 124 -15 253 -42 328 -69 34 -12
42 -12 42 -2 0 20 -245 87 -370 102 -30 3 -57 8 -60 9 -13 8 -366 25 -373 19z
m1073 -929 c143 -77 161 -274 43 -474 -48 -81 -197 -239 -319 -337 -52 -41
-94 -79 -94 -83 0 -17 60 -100 80 -111 17 -9 33 -9 69 1 48 14 165 18 217 7
45 -9 111 -45 119 -65 18 -45 15 -71 -9 -100 -42 -50 -126 -63 -326 -52 -81 4
-107 -4 -205 -66 -274 -173 -375 -581 -225 -903 44 -93 134 -193 209 -232 264
-134 558 5 624 297 28 121 0 268 -64 346 -96 117 -282 106 -335 -20 -29 -67
-13 -127 55 -213 52 -65 55 -108 12 -151 -77 -76 -237 5 -290 147 -79 209 39
444 257 511 250 76 489 -49 577 -304 87 -249 27 -504 -162 -690 -132 -132
-287 -194 -488 -194 -286 0 -518 148 -643 411 -60 127 -81 224 -82 375 0 112
6 158 36 263 62 214 208 397 409 512 l56 32 -31 31 c-16 17 -30 34 -30 39 0
17 -23 4 -171 -95 -139 -93 -334 -214 -446 -277 -24 -13 -44 -28 -44 -34 -2
-14 -5 -50 -13 -151 -27 -332 -80 -536 -188 -720 -126 -216 -279 -334 -493
-382 -42 -9 -172 -3 -223 11 -255 70 -354 351 -222 633 110 238 322 406 856
682 81 42 82 43 89 87 3 25 8 54 10 65 4 20 -9 26 -20 9 -11 -17 -97 -57 -154
-70 -71 -17 -175 -8 -227 18 -74 38 -151 131 -169 203 -6 23 -14 28 -64 38
-60 12 -160 65 -194 104 -33 38 -64 91 -81 140 -48 143 -7 355 80 412 39 25
82 27 105 4 21 -21 23 -37 9 -94 -43 -177 -23 -298 59 -352 59 -39 66 -34 79
65 15 118 19 135 49 222 108 315 324 530 532 530 84 0 131 -17 177 -64 53 -52
68 -105 60 -204 -22 -270 -272 -603 -548 -730 -27 -12 -48 -25 -48 -30 0 -4 9
-22 20 -40 24 -40 74 -63 121 -56 57 8 157 63 215 117 50 46 59 61 83 138 61
189 186 309 289 275 32 -11 54 -59 47 -104 -9 -59 -59 -150 -135 -243 -73 -90
-71 -86 -86 -229 -7 -64 -6 -65 13 -47 11 9 23 17 26 17 8 0 318 190 327 200
3 3 48 34 101 70 96 65 97 65 91 100 -8 46 -7 181 2 250 7 60 16 90 52 190 93
254 307 421 499 387 27 -5 61 -15 75 -22z"/>
<path d="M2103 3744 c-101 -50 -243 -289 -287 -487 -22 -95 -26 -138 -12 -130
142 82 313 284 385 451 51 121 5 210 -86 166z"/>
<path d="M3310 3693 c-89 -92 -161 -265 -173 -415 -4 -54 -3 -54 67 11 127
119 262 309 266 376 4 63 -13 85 -68 85 -31 0 -44 -8 -92 -57z"/>
<path d="M2016 2318 c-183 -101 -379 -247 -470 -349 -56 -64 -121 -167 -141
-224 -25 -71 -25 -171 0 -214 42 -72 110 -96 212 -75 185 38 318 195 414 489
48 144 102 426 83 424 -5 -1 -49 -23 -98 -51z"/>
</g>
</svg>
